HIERARCHY
ROOT Hips
{
    OFFSET   0.000000   0.000000   0.000000
    CHANNELS 6 Xposition Yposition Zposition Zrotation Xrotation Yrotation
    JOINT Chest
    {
        OFFSET   0.000000   8.007230   0.000000
        CHANNELS 3 Zrotation Xrotation Yrotation
        JOINT Chest2
        {
            OFFSET   0.000000  22.077100   0.000000
            CHANNELS 3 Zrotation Xrotation Yrotation
            JOINT Neck
            {
                OFFSET   0.000000  23.254800  -0.000021
                CHANNELS 3 Zrotation Xrotation Yrotation
                JOINT Head
                {
                    OFFSET   0.000000  14.370000   1.956610
                    CHANNELS 3 Zrotation Xrotation Yrotation
                    End Site
                    {
                        OFFSET   0.000000  19.566000   0.000000
                    }
                }
            }
            JOINT LeftCollar
            {
                OFFSET   3.911900  19.017000  -0.467063
                CHANNELS 3 Zrotation Xrotation Yrotation
                JOINT LeftShoulder
                {
                    OFFSET  10.383700   0.000000   0.000000
                    CHANNELS 3 Zrotation Xrotation Yrotation
                    JOINT LeftElbow
                    {
                        OFFSET  26.662100   0.001529   0.000325
                        CHANNELS 3 Zrotation Xrotation Yrotation
                        JOINT LeftWrist
                        {
                            OFFSET  28.869000  -0.000011  -0.000096
                            CHANNELS 3 Zrotation Xrotation Yrotation
                            JOINT LeftFinger0
                            {
                                OFFSET   2.044650  -2.323460   3.252850
                                CHANNELS 3 Zrotation Xrotation Yrotation
                                JOINT LeftFinger01
                                {
                                    OFFSET   3.088130   0.000000   0.000000
                                    CHANNELS 3 Zrotation Xrotation Yrotation
                                    JOINT LeftFinger02
                                    {
                                        OFFSET   2.639460   0.000000   0.000000
                                        CHANNELS 3 Zrotation Xrotation Yrotation
                                        End Site
                                        {
                                            OFFSET   2.582190   0.000000   0.000000
                                        }
                                    }
                                }
                            }
                            JOINT LeftFinger1
                            {
                                OFFSET   8.364480   0.000000   3.252850
                                CHANNELS 3 Zrotation Xrotation Yrotation
                                JOINT LeftFinger11
                                {
                                    OFFSET   4.646930   0.000000   0.000000
                                    CHANNELS 3 Zrotation Xrotation Yrotation
                                    JOINT LeftFinger12
                                    {
                                        OFFSET   2.323460   0.000000   0.000000
                                        CHANNELS 3 Zrotation Xrotation Yrotation
                                        End Site
                                        {
                                            OFFSET   2.273050   0.000000   0.000000
                                        }
                                    }
                                }
                            }
                            JOINT LeftFinger2
                            {
                                OFFSET   8.364480   0.000016   1.078090
                                CHANNELS 3 Zrotation Xrotation Yrotation
                                JOINT LeftFinger21
                                {
                                    OFFSET   5.111620   0.000000   0.000000
                                    CHANNELS 3 Zrotation Xrotation Yrotation
                                    JOINT LeftFinger22
                                    {
                                        OFFSET   2.788160   0.000017   0.000000
                                        CHANNELS 3 Zrotation Xrotation Yrotation
                                        End Site
                                        {
                                            OFFSET   2.727660   0.000000   0.000000
                                        }
                                    }
                                }
                            }
                            JOINT LeftFinger3
                            {
                                OFFSET   7.899780   0.000015  -1.078090
                                CHANNELS 3 Zrotation Xrotation Yrotation
                                JOINT LeftFinger31
                                {
                                    OFFSET   4.646920   0.000000   0.000000
                                    CHANNELS 3 Zrotation Xrotation Yrotation
                                    JOINT LeftFinger32
                                    {
                                        OFFSET   2.323470   0.000000   0.000000
                                        CHANNELS 3 Zrotation Xrotation Yrotation
                                        End Site
                                        {
                                            OFFSET   2.273050   0.000000   0.000000
                                        }
                                    }
                                }
                            }
                            JOINT LeftFinger4
                            {
                                OFFSET   7.435090   0.000000  -3.252850
                                CHANNELS 3 Zrotation Xrotation Yrotation
                                JOINT LeftFinger41
                                {
                                    OFFSET   3.717550   0.000000   0.000000
                                    CHANNELS 3 Zrotation Xrotation Yrotation
                                    JOINT LeftFinger42
                                    {
                                        OFFSET   1.858760   0.000000   0.000000
                                        CHANNELS 3 Zrotation Xrotation Yrotation
                                        End Site
                                        {
                                            OFFSET   1.818440   0.000000   0.000000
                                        }
                                    }
                                }
                            }
                        }
                    }
                }
            }
            JOINT RightCollar
            {
                OFFSET  -3.911900  19.017000  -0.467062
                CHANNELS 3 Zrotation Xrotation Yrotation
                JOINT RightShoulder
                {
                    OFFSET -10.383700   0.000015   0.000000
                    CHANNELS 3 Zrotation Xrotation Yrotation
                    JOINT RightElbow
                    {
                        OFFSET -26.662100   0.001341   0.000385
                        CHANNELS 3 Zrotation Xrotation Yrotation
                        JOINT RightWrist
                        {
                            OFFSET -28.869000   0.000025  -0.000080
                            CHANNELS 3 Zrotation Xrotation Yrotation
                            JOINT RightFinger0
                            {
                                OFFSET  -2.044650  -2.323490   3.252850
                                CHANNELS 3 Zrotation Xrotation Yrotation
                                JOINT RightFinger01
                                {
                                    OFFSET  -3.088130   0.000000   0.000000
                                    CHANNELS 3 Zrotation Xrotation Yrotation
                                    JOINT RightFinger02
                                    {
                                        OFFSET  -2.639460   0.000000   0.000000
                                        CHANNELS 3 Zrotation Xrotation Yrotation
                                        End Site
                                        {
                                            OFFSET  -2.582190   0.000000   0.000000
                                        }
                                    }
                                }
                            }
                            JOINT RightFinger1
                            {
                                OFFSET  -8.364480   0.000000   3.252850
                                CHANNELS 3 Zrotation Xrotation Yrotation
                                JOINT RightFinger11
                                {
                                    OFFSET  -4.646930   0.000000   0.000000
                                    CHANNELS 3 Zrotation Xrotation Yrotation
                                    JOINT RightFinger12
                                    {
                                        OFFSET  -2.323470   0.000000   0.000000
                                        CHANNELS 3 Zrotation Xrotation Yrotation
                                        End Site
                                        {
                                            OFFSET  -2.273050   0.000000   0.000000
                                        }
                                    }
                                }
                            }
                            JOINT RightFinger2
                            {
                                OFFSET  -8.364480   0.000000   1.078090
                                CHANNELS 3 Zrotation Xrotation Yrotation
                                JOINT RightFinger21
                                {
                                    OFFSET  -5.111610   0.000000   0.000000
                                    CHANNELS 3 Zrotation Xrotation Yrotation
                                    JOINT RightFinger22
                                    {
                                        OFFSET  -2.788160   0.000000   0.000000
                                        CHANNELS 3 Zrotation Xrotation Yrotation
                                        End Site
                                        {
                                            OFFSET  -2.727660   0.000000   0.000000
                                        }
                                    }
                                }
                            }
                            JOINT RightFinger3
                            {
                                OFFSET  -7.899780   0.000000  -1.078090
                                CHANNELS 3 Zrotation Xrotation Yrotation
                                JOINT RightFinger31
                                {
                                    OFFSET  -4.646920   0.000000   0.000000
                                    CHANNELS 3 Zrotation Xrotation Yrotation
                                    JOINT RightFinger32
                                    {
                                        OFFSET  -2.323470   0.000000   0.000000
                                        CHANNELS 3 Zrotation Xrotation Yrotation
                                        End Site
                                        {
                                            OFFSET  -2.273050   0.000000   0.000000
                                        }
                                    }
                                }
                            }
                            JOINT RightFinger4
                            {
                                OFFSET  -7.435090   0.000000  -3.252850
                                CHANNELS 3 Zrotation Xrotation Yrotation
                                JOINT RightFinger41
                                {
                                    OFFSET  -3.717550   0.000000   0.000000
                                    CHANNELS 3 Zrotation Xrotation Yrotation
                                    JOINT RightFinger42
                                    {
                                        OFFSET  -1.858770   0.000000   0.000000
                                        CHANNELS 3 Zrotation Xrotation Yrotation
                                        End Site
                                        {
                                            OFFSET  -1.818440   0.000000   0.000000
                                        }
                                    }
                                }
                            }
                        }
                    }
                }
            }
        }
    }
    JOINT LeftHip
    {
        OFFSET   9.783010   0.000000   0.000000
        CHANNELS 3 Zrotation Xrotation Yrotation
        JOINT LeftKnee
        {
            OFFSET   0.000070 -41.789100   0.000028
            CHANNELS 3 Zrotation Xrotation Yrotation
            JOINT LeftAnkle
            {
                OFFSET   0.000087 -41.133200  -0.000100
                CHANNELS 3 Zrotation Xrotation Yrotation
                JOINT LeftToe
                {
                    OFFSET   0.000000  -6.358960  14.674500
                    CHANNELS 3 Zrotation Xrotation Yrotation
                    End Site
                    {
                        OFFSET   0.000000   0.000000   3.913200
                    }
                }
            }
        }
    }
    JOINT RightHip
    {
        OFFSET  -9.783020   0.000000   0.000000
        CHANNELS 3 Zrotation Xrotation Yrotation
        JOINT RightKnee
        {
            OFFSET   0.000044 -41.789100  -0.000870
            CHANNELS 3 Zrotation Xrotation Yrotation
            JOINT RightAnkle
            {
                OFFSET  -0.000090 -41.133200  -0.000245
                CHANNELS 3 Zrotation Xrotation Yrotation
                JOINT RightToe
                {
                    OFFSET   0.000000  -6.358960  14.674500
                    CHANNELS 3 Zrotation Xrotation Yrotation
                    End Site
                    {
                        OFFSET   0.000000   0.000000   3.913200
                    }
                }
            }
        }
    }
}
MOTION
Frames: 4
Frame Time:   0.016667
 -2.456500  89.309400  -0.083271  -2.320950  -9.934170  -9.169780   2.621030   7.387990  -1.105750   5.455190  14.715300  -2.586800   2.041840   2.477870  -0.088343   3.371900   5.005590  12.410100  -3.408890   1.746770   6.278820 -78.686100  10.298000  -3.747820  -0.883587   1.425120 -19.680500   4.544690  -8.236770  -1.683940  39.814100  32.950600 -52.196200 -32.372100  -0.003495   0.006768 -11.186100   0.005974   0.002680 -25.300600  -1.445990   3.055720 -20.732000   0.002246  -0.002833 -14.512400  -0.003177  -0.001984 -28.084200  -3.556710   6.631440 -34.131400  -0.001080  -0.001558 -22.731500   0.004573  -0.001028 -23.735000  -3.042020   6.881850 -23.918000  -0.000575  -0.000115 -15.929400   0.003228  -0.001423 -24.713100  -3.156280   6.822190 -37.352000  -0.000303  -0.001154 -24.876400  -0.000639   0.000821   6.018450   1.492700   7.819920  65.659900 -12.499500  33.708600  -9.007700 -12.108700  56.435000   5.017780 -77.280200  15.489900 -38.574700  34.323800  71.185600  30.642500  -0.009268   0.005647  10.321200  -0.003246   0.007879  22.506900  -1.004170  -2.437620  18.414100   0.033900   0.020196  12.889900   0.022994   0.003496  22.170300  -3.294150  -8.017560  22.388900   0.044017   0.022643  14.911100   0.032306   0.006891  25.904300  -3.819610  -7.804060  26.465100   0.049761   0.025413  17.625700   0.033787  -0.003022  27.378900  -4.017180  -7.702850  41.439300   0.055914   0.002646  27.598600   0.033666  -0.011693   4.690060  12.251900   2.245360   0.762459   4.141710  17.583400  -6.346940  -4.753730  -0.685833  -0.000000   0.000000   0.000000  -0.555404  12.090300  -4.471560   0.970198   1.270040  -8.222190   0.134805  -2.655030   8.287270  -0.000000   0.000000  -0.000000
 -2.433370  89.315700  -0.123859  -2.201030  -9.798920  -8.844130   2.566100   7.292120  -1.090570   5.338220  14.525800  -2.543390   1.944250   2.427050  -0.082373   3.209820   4.904810  12.375700  -3.403840   1.773640   6.326460 -78.705900  10.330200  -3.733180  -0.900365   1.470930 -19.744800   4.540550  -8.328990  -1.696610  39.869700  33.013000 -52.218600 -32.341000  -0.003549   0.006925 -11.170500   0.006058   0.002781 -25.303600  -1.433420   3.030910 -20.733500   0.002339  -0.002812 -14.513400  -0.003211  -0.001970 -28.087200  -3.572270   6.659160 -34.169300  -0.001025  -0.001542 -22.756700   0.004545  -0.001019 -23.733100  -3.054120   6.911330 -23.918700  -0.000525  -0.000134 -15.929900   0.003161  -0.001397 -24.710900  -3.167740   6.851580 -37.352500  -0.000261  -0.001175 -24.876700  -0.000589   0.000762   5.961300   1.490750   7.739100  65.317100 -12.240100  33.167500  -9.332840 -12.076800  55.725000   5.594240 -74.476800  15.992800 -38.361000  34.883000  72.145900  31.283600  -0.005439   0.003405  10.641800  -0.003312   0.005943  24.051000  -1.360470  -3.060230  19.688500   0.035314   0.017771  13.781900   0.025287   0.003579  23.918400  -3.853500  -8.588510  24.032200   0.055468   0.027291  16.005600   0.040794   0.004898  26.835400  -4.308330  -8.416620  28.342800   0.054309   0.025224  18.876300   0.037623  -0.003065  28.541500  -4.559030  -8.263510  43.303400   0.049044   0.001618  28.840100   0.029095  -0.010796   4.651110  12.039300   2.179450   0.769570   4.095020  17.433200  -6.332590  -4.653780  -0.754022  -0.000000   0.000000   0.000000  -0.615266  11.932500  -4.482210   0.999270   1.280610  -8.347330   0.174989  -2.671450   8.127400   0.000000   0.000000  -0.000000
 -2.404650  89.322400  -0.165670  -2.075320  -9.653260  -8.486370   2.507610   7.190810  -1.070010   5.213330  14.325800  -2.488590   1.841800   2.368110  -0.076128   3.040070   4.787630  12.317800  -3.395540   1.793580   6.365840 -78.739000  10.346100  -3.710030  -0.912470   1.539210 -19.811900   4.539840  -8.378490  -1.710150  39.899600  33.055000 -52.229700 -32.323300  -0.003601   0.007079 -11.161600   0.006141   0.002879 -25.316300  -1.426770   3.013040 -20.744000   0.002433  -0.002791 -14.520800  -0.003245  -0.001958 -28.095300  -3.590290   6.690210 -34.258100  -0.000970  -0.001525 -22.815900   0.004517  -0.001010 -23.737400  -3.070020   6.943600 -23.924000  -0.000473  -0.000154 -15.933400   0.003095  -0.001371 -24.711600  -3.188040   6.890440 -37.355800  -0.000219  -0.001195 -24.879000  -0.000538   0.000704   5.911760   1.475390   7.657570  64.874700 -11.989500  32.485400  -9.656170 -11.871200  54.883200   5.629360 -71.365300  16.008000 -38.198100  35.469400  73.031200  31.794100  -0.003814   0.002370  10.897100  -0.003368   0.004379  25.406900  -1.724890  -3.665020  20.813800   0.037365   0.017340  14.569600   0.028412   0.003627  25.450600  -4.226330  -8.843360  25.560400   0.069330   0.031940  17.023300   0.050516   0.003417  27.442700  -4.552990  -8.707230  30.127900   0.058858   0.023899  20.065200   0.041458  -0.003106  29.544500  -4.853470  -8.517630  44.872100   0.044543   0.000795  29.884800   0.026198  -0.009834   4.609920  11.812500   2.114630   0.777779   4.044230  17.261000  -6.316290  -4.547780  -0.830647  -0.000000   0.000000   0.000000  -0.679808  11.777500  -4.490250   1.036650   1.284330  -8.498520   0.214982  -2.689480   7.959960  -0.000000   0.000000   0.000000
 -2.371380  89.329500  -0.205404  -1.945010  -9.500180  -8.091590   2.443460   7.087120  -1.041690   5.076510  14.121300  -2.419860   1.738000   2.297910  -0.069673   2.867850   4.647340  12.235100  -3.382720   1.802080   6.395430 -78.807200  10.307800  -3.673020  -0.901910   1.658290 -19.886900   4.566070  -8.361860  -1.721880  39.891700  33.041100 -52.205400 -32.314900  -0.003653   0.007229 -11.157500   0.006215   0.002970 -25.359900  -1.427190   3.008110 -20.780100   0.002525  -0.002770 -14.546000  -0.003279  -0.001945 -28.107700  -3.618010   6.737720 -34.393900  -0.000913  -0.001510 -22.906300   0.004486  -0.000999 -23.773800  -3.097380   6.991590 -23.962900  -0.000423  -0.000180 -15.959300   0.003030  -0.001344 -24.751700  -3.217090   6.938070 -37.419700  -0.000177  -0.001214 -24.921600  -0.000484   0.000646   5.859740   1.427560   7.594750  64.206200 -11.695200  31.526800  -9.714390 -11.664400  53.984200   5.220160 -67.885100  15.733700 -37.993200  36.226300  74.195700  32.051700  -0.004525   0.002881  11.025900  -0.003422   0.002645  26.447500  -2.036710  -4.130470  21.680700   0.038496   0.017591  15.176400   0.029451   0.003636  26.500900  -4.317860  -8.664060  26.991300   0.072142   0.031687  17.976200   0.051956   0.001873  27.698100  -4.508800  -8.566350  31.622400   0.053676   0.019509  21.060500   0.037673  -0.003145  30.336200  -4.870270  -8.343180  46.047900   0.040322  -0.000178  30.667900   0.023325  -0.008721   4.562950  11.575400   2.048460   0.791274   3.988980  17.069000  -6.297840  -4.437680  -0.920018  -0.000000   0.000000   0.000000  -0.750398  11.601200  -4.501820   1.083810   1.297010  -8.672940   0.249203  -2.709860   7.780360  -0.000000   0.000000   0.000000
